<svg width="21" height="21" viewBox="0 0 21 21" fill="none" xmlns="http://www.w3.org/2000/svg">
<path d="M10.5 12.5833C13.3765 12.5833 15.7084 9.78511 15.7084 6.33333C15.7084 2.88155 13.3765 0.0833282 10.5 0.0833282C7.62354 0.0833282 5.29169 2.88155 5.29169 6.33333C5.29169 9.78511 7.62354 12.5833 10.5 12.5833Z" fill="#2B4775"/>
<path d="M20.7083 17.8958C19.7708 16.0208 18 14.4583 15.7083 13.5208C15.0833 13.3125 14.3542 13.3125 13.8333 13.625C12.7917 14.25 11.75 14.5625 10.5 14.5625C9.25 14.5625 8.20834 14.25 7.16667 13.625C6.64584 13.4167 5.91667 13.3125 5.29167 13.625C3 14.5625 1.22917 16.125 0.291669 18C-0.437498 19.3542 0.708335 20.9167 2.27084 20.9167H18.7292C20.2917 20.9167 21.4375 19.3542 20.7083 17.8958Z" fill="#2B4775"/>
</svg>
