<svg width="37" height="31" viewBox="0 0 37 31" fill="none" xmlns="http://www.w3.org/2000/svg">
<path d="M17.972 5.05951L18.4003 5.77035L18.8285 5.05951C20.4752 2.32647 23.4701 0.5 26.8923 0.5C32.0885 0.5 36.3 4.71035 36.3 9.90385C36.3 12.6063 35.159 15.0404 33.3315 16.7561L32.4107 17.6207H32.4318L19.0791 30.3926L19.0695 30.4017L19.0605 30.4113C18.8921 30.5903 18.6571 30.7 18.3966 30.7C18.1148 30.7 17.8628 30.5725 17.6929 30.3685L17.6748 30.3467L17.6543 30.3271L4.37024 17.6207H4.38954L3.46906 16.7562C1.64173 15.0401 0.5 12.6059 0.5 9.90385C0.5 4.71035 4.71146 0.5 9.90773 0.5C13.3299 0.5 16.3254 2.32649 17.972 5.05951Z" fill="#F567C5" stroke="#2B4775"/>
</svg>
