<svg width="38" height="32" viewBox="0 0 38 32" fill="none" xmlns="http://www.w3.org/2000/svg">
<path d="M18.572 5.05951L19.0002 5.77035L19.4285 5.05951C21.0751 2.32647 24.0701 0.5 27.4922 0.5C32.6885 0.5 36.9 4.71035 36.9 9.90385C36.9 12.6063 35.759 15.0404 33.9315 16.7561L33.0107 17.6207H33.0318L19.6791 30.3926L19.6695 30.4017L19.6605 30.4113C19.4921 30.5903 19.257 30.7 18.9966 30.7C18.7148 30.7 18.4628 30.5725 18.2929 30.3685L18.2748 30.3467L18.2543 30.3271L4.97021 17.6207H4.98951L4.06904 16.7562C2.24171 15.0401 1.09998 12.6059 1.09998 9.90385C1.09998 4.71035 5.31143 0.5 10.5077 0.5C13.9299 0.5 16.9253 2.32649 18.572 5.05951Z" fill="#DDDDDD" stroke="#2B4775"/>
</svg>
