<svg width="20" height="20" viewBox="0 0 20 20" fill="none" xmlns="http://www.w3.org/2000/svg">
<path d="M9.27277 15.0909C9.6364 15.5455 10.3637 15.5455 10.7273 15.0909L16.1819 9.36364C16.6364 8.90909 16.1819 8.18182 15.4546 8.18182H11.8182C11.8182 8.18182 12 4 11.8182 1.81818C11.7273 0.818182 11 0 10 0C9.00004 0 8.27277 0.818182 8.18186 1.81818C8.00004 3.90909 8.18186 8.18182 8.18186 8.18182H4.5455C3.81822 8.18182 3.36368 8.90909 3.81822 9.45454L9.27277 15.0909Z" fill="#2B4775"/>
<path d="M16.3636 17.2727H3.6363C2.6363 17.2727 1.81812 18.0909 1.81812 19.0909C1.81812 19.6364 2.18175 20 2.72721 20H17.2727C17.8181 20 18.1818 19.6364 18.1818 19.0909C18.1818 18.0909 17.3636 17.2727 16.3636 17.2727Z" fill="#2B4775"/>
</svg>
