<svg width="40" height="40" viewBox="0 0 40 40" fill="none" xmlns="http://www.w3.org/2000/svg">
<path d="M32.625 10.125L32 9.62497C31.25 8.99997 30.75 8.12497 30.625 7.24997L30.5 6.74997C30.25 4.87497 29.125 3.12497 27.375 2.12497C25.625 1.12497 23.5 0.999965 21.5 1.74997C20.5 2.12497 19.375 2.12497 18.375 1.74997C16.5 0.999965 14.375 1.12497 12.5 2.12497C10.875 3.12497 9.75 4.74997 9.5 6.74997L9.375 7.24997C9.25 8.12497 8.75 8.99997 8 9.62497L7.375 10.125C5.875 11.375 5 13.125 5 15C5 16.875 5.875 18.625 7.375 19.875L8 20.375C8.75 21 9.25 21.875 9.375 22.75L9.5 23.25C9.75 25.125 10.875 26.875 12.625 27.875C14.375 28.875 16.5 29 18.5 28.25C19.5 27.875 20.625 27.875 21.625 28.25C22.5 28.625 23.375 28.75 24.125 28.75C25.25 28.75 26.375 28.5 27.375 27.875C29.125 26.875 30.25 25.25 30.5 23.25L30.625 22.75C30.75 21.75 31.25 20.875 32 20.375L32.625 19.875C34.125 18.625 35 16.875 35 15C35 13.125 34.125 11.375 32.625 10.125ZM21.25 19.875C21.25 20.625 20.75 21.25 20 21.25C19.25 21.25 18.75 20.75 18.75 20C18 20 17.5 19.5 17.5 18.75C17.5 18 18 17.5 18.75 17.5H20.625C21 17.5 21.25 17.25 21.25 16.875C21.25 16.5 21 16.25 20.625 16.25H19.375C17.625 16.25 16.25 14.875 16.25 13.125C16.25 11.625 17.375 10.375 18.75 10.125V9.99997C18.75 9.24997 19.25 8.74997 20 8.74997C20.75 8.74997 21.25 9.24997 21.25 9.99997C22 9.99997 22.5 10.5 22.5 11.25C22.5 12 22 12.5 21.25 12.5H19.375C19 12.5 18.75 12.75 18.75 13.125C18.75 13.5 19 13.75 19.375 13.75H20.625C22.375 13.75 23.75 15.125 23.75 16.875C23.75 18.375 22.625 19.625 21.25 19.875Z" fill="#2B4775"/>
<path d="M28.625 30C26.125 31.375 23.125 31.625 20.625 30.5C20.25 30.375 19.75 30.375 19.375 30.5C18.25 31 17 31.25 15.875 31.25C14.25 31.25 12.75 30.875 11.375 30C11.375 30 11.375 30 11.25 30V37.5C11.25 37.875 11.5 38.375 11.875 38.625C12.25 38.875 12.75 38.875 13.125 38.625L20.125 35.125L27.125 38.625C27.125 38.75 27.25 38.75 27.5 38.75C27.75 38.75 28 38.75 28.125 38.625C28.5 38.375 28.75 38 28.75 37.5L28.625 30C28.75 30 28.75 30 28.625 30Z" fill="#2B4775"/>
</svg>
