<svg width="40" height="40" viewBox="0 0 40 40" fill="none" xmlns="http://www.w3.org/2000/svg">
<path d="M27.2124 32.3375C24.6738 32.2942 22.152 31.9159 19.7124 31.2125C16.5693 30.2578 13.2641 29.9558 9.99993 30.325C8.39939 30.5199 6.81286 30.8163 5.24993 31.2125C5.06544 31.2593 4.8727 31.2634 4.6864 31.2244C4.5001 31.1854 4.32516 31.1044 4.17493 30.9875C4.03509 30.8649 3.92437 30.7126 3.85085 30.5418C3.77732 30.3709 3.74285 30.1858 3.74993 30V10C3.74161 9.71446 3.83135 9.43468 4.0042 9.20724C4.17705 8.97981 4.42259 8.81844 4.69993 8.75C6.52322 8.29329 8.37855 7.97571 10.2499 7.8C13.6158 7.48213 17.0113 7.81744 20.2499 8.7875C23.2492 9.68843 26.395 9.99834 29.5124 9.7C31.2629 9.5134 32.9969 9.19585 34.6999 8.75C34.8844 8.70318 35.0772 8.69912 35.2635 8.73811C35.4498 8.7771 35.6247 8.85813 35.7749 8.975C35.929 9.09656 36.0523 9.2527 36.1348 9.43078C36.2174 9.60885 36.2568 9.80385 36.2499 10V30C36.2583 30.2855 36.1685 30.5653 35.9957 30.7928C35.8228 31.0202 35.5773 31.1816 35.2999 31.25C33.6313 31.6763 31.9358 31.9895 30.2249 32.1875C29.2244 32.2947 28.2186 32.3448 27.2124 32.3375V32.3375ZM12.7874 27.6625C15.326 27.7058 17.8478 28.0841 20.2874 28.7875C23.4108 29.7337 26.6939 30.0356 29.9374 29.675C31.1992 29.5268 32.4513 29.3056 33.6874 29.0125V11.575C32.3877 11.8541 31.073 12.0586 29.7499 12.1875C26.3667 12.525 22.9501 12.2066 19.6874 11.25C16.7092 10.3508 13.5851 10.0366 10.4874 10.325C9.06185 10.452 7.64624 10.6733 6.24993 10.9875V28.4875C7.41438 28.236 8.59091 28.044 9.77493 27.9125C10.7735 27.7718 11.7793 27.6884 12.7874 27.6625V27.6625Z" fill="#2B4775"/>
<path d="M5.4623 16.25H4.8998C4.5859 16.2248 4.29308 16.082 4.07988 15.8503C3.86667 15.6186 3.74879 15.3149 3.7498 15V9.99997C3.74148 9.71443 3.83121 9.43465 4.00407 9.20721C4.17692 8.97978 4.42245 8.81841 4.6998 8.74997C6.52308 8.29326 8.37842 7.97568 10.2498 7.79997C10.5498 7.77041 10.8504 7.85028 11.0962 8.02485C11.342 8.19943 11.5164 8.45695 11.5873 8.74997C11.6744 9.16084 11.7163 9.57999 11.7123 9.99997C11.7123 11.6576 11.0538 13.2473 9.88171 14.4194C8.70961 15.5915 7.1199 16.25 5.4623 16.25ZM6.2498 10.9875V13.6625C7.01462 13.4984 7.709 13.0993 8.23573 12.5211C8.76247 11.9428 9.09518 11.2142 9.1873 10.4375C8.2748 10.575 7.2998 10.75 6.2498 10.9875Z" fill="#2B4775"/>
<path d="M34.6 16.2499C33.157 16.2531 31.7574 15.7569 30.6387 14.8455C29.52 13.9342 28.7511 12.6638 28.4625 11.2499C28.4281 11.0646 28.4361 10.8738 28.4859 10.692C28.5357 10.5102 28.626 10.342 28.75 10.1999C28.8531 10.0604 28.9842 9.94394 29.1348 9.85786C29.2855 9.77178 29.4524 9.718 29.625 9.69995C31.3376 9.50786 33.0338 9.19034 34.7 8.74995C34.8845 8.70313 35.0772 8.69907 35.2635 8.73806C35.4498 8.77705 35.6247 8.85808 35.775 8.97495C35.9291 9.09651 36.0523 9.25265 36.1349 9.43073C36.2174 9.6088 36.2568 9.8038 36.25 9.99995V14.9999C36.2543 15.2977 36.1522 15.5873 35.962 15.8165C35.7717 16.0456 35.506 16.1994 35.2125 16.2499C35.0091 16.2751 34.8034 16.2751 34.6 16.2499ZM31.425 11.9999C31.9525 12.8346 32.788 13.4275 33.75 13.6499V11.5749C32.95 11.7374 32.175 11.8874 31.425 11.9999Z" fill="#2B4775"/>
<path d="M4.99976 31.25C4.66824 31.25 4.35029 31.1183 4.11587 30.8839C3.88145 30.6495 3.74976 30.3315 3.74976 30V25C3.74976 24.6685 3.88145 24.3505 4.11587 24.1161C4.35029 23.8817 4.66824 23.75 4.99976 23.75C6.45864 23.7519 7.8709 24.2641 8.99183 25.1978C10.1128 26.1315 10.8717 27.428 11.1373 28.8625C11.1689 29.0318 11.1653 29.2057 11.1266 29.3735C11.0879 29.5413 11.0149 29.6992 10.9123 29.8375C10.8093 29.9732 10.6797 30.0865 10.5314 30.1703C10.383 30.2542 10.2192 30.3068 10.0498 30.325C8.44922 30.5199 6.86269 30.8163 5.29976 31.2125C5.20164 31.2371 5.1009 31.2497 4.99976 31.25V31.25ZM6.24976 26.4625V28.425C6.92476 28.2875 7.57476 28.1625 8.21226 28.0625C7.76338 27.3178 7.06964 26.7522 6.24976 26.4625V26.4625Z" fill="#2B4775"/>
<path d="M30.0874 32.1625C29.7985 32.1696 29.516 32.0763 29.2881 31.8985C29.0602 31.7207 28.9009 31.4695 28.8374 31.1875C28.7683 30.7956 28.739 30.3978 28.7499 30C28.7499 28.3424 29.4084 26.7527 30.5805 25.5806C31.7526 24.4085 33.3423 23.75 34.9999 23.75C35.3314 23.75 35.6494 23.8817 35.8838 24.1161C36.1182 24.3505 36.2499 24.6685 36.2499 25V30C36.2582 30.2855 36.1685 30.5653 35.9956 30.7928C35.8228 31.0202 35.5773 31.1816 35.2999 31.25C33.6313 31.6763 31.9357 31.9895 30.2249 32.1875L30.0874 32.1625ZM33.7499 26.4625C33.0945 26.6866 32.5139 27.0879 32.0726 27.6219C31.6313 28.1558 31.3466 28.8016 31.2499 29.4875C32.0374 29.3625 32.8624 29.2125 33.7499 29.0125V26.4625Z" fill="#2B4775"/>
<path d="M21.875 25H17.5C17.1685 25 16.8505 24.8683 16.6161 24.6339C16.3817 24.3995 16.25 24.0815 16.25 23.75C16.25 23.4185 16.3817 23.1005 16.6161 22.8661C16.8505 22.6317 17.1685 22.5 17.5 22.5H21.875C22.0408 22.5 22.1997 22.4342 22.3169 22.3169C22.4342 22.1997 22.5 22.0408 22.5 21.875C22.5 21.7092 22.4342 21.5503 22.3169 21.4331C22.1997 21.3158 22.0408 21.25 21.875 21.25H18.125C17.2962 21.25 16.5013 20.9208 15.9153 20.3347C15.3292 19.7487 15 18.9538 15 18.125C15 17.2962 15.3292 16.5013 15.9153 15.9153C16.5013 15.3292 17.2962 15 18.125 15H22.5C22.8315 15 23.1495 15.1317 23.3839 15.3661C23.6183 15.6005 23.75 15.9185 23.75 16.25C23.75 16.5815 23.6183 16.8995 23.3839 17.1339C23.1495 17.3683 22.8315 17.5 22.5 17.5H18.125C17.9592 17.5 17.8003 17.5658 17.6831 17.6831C17.5658 17.8003 17.5 17.9592 17.5 18.125C17.5 18.2908 17.5658 18.4497 17.6831 18.5669C17.8003 18.6842 17.9592 18.75 18.125 18.75H21.875C22.7038 18.75 23.4987 19.0792 24.0847 19.6653C24.6708 20.2513 25 21.0462 25 21.875C25 22.7038 24.6708 23.4987 24.0847 24.0847C23.4987 24.6708 22.7038 25 21.875 25Z" fill="#2B4775"/>
<path d="M20 17.5C19.6685 17.5 19.3505 17.3683 19.1161 17.1339C18.8817 16.8995 18.75 16.5815 18.75 16.25V15C18.75 14.6685 18.8817 14.3505 19.1161 14.1161C19.3505 13.8817 19.6685 13.75 20 13.75C20.3315 13.75 20.6495 13.8817 20.8839 14.1161C21.1183 14.3505 21.25 14.6685 21.25 15V16.25C21.25 16.5815 21.1183 16.8995 20.8839 17.1339C20.6495 17.3683 20.3315 17.5 20 17.5Z" fill="#2B4775"/>
<path d="M20 26.25C19.6685 26.25 19.3505 26.1183 19.1161 25.8839C18.8817 25.6495 18.75 25.3315 18.75 25V23.75C18.75 23.4185 18.8817 23.1005 19.1161 22.8661C19.3505 22.6317 19.6685 22.5 20 22.5C20.3315 22.5 20.6495 22.6317 20.8839 22.8661C21.1183 23.1005 21.25 23.4185 21.25 23.75V25C21.25 25.3315 21.1183 25.6495 20.8839 25.8839C20.6495 26.1183 20.3315 26.25 20 26.25Z" fill="#2B4775"/>
</svg>
