<svg width="40" height="40" viewBox="0 0 40 40" fill="none" xmlns="http://www.w3.org/2000/svg">
<path fill-rule="evenodd" clip-rule="evenodd" d="M37.5716 38.1775C37.5055 35.9966 34.7762 32.431 32.4094 32.1187C30.0713 31.8165 28.3485 30.5566 26.9716 29.365C26.6349 29.0735 26.3313 28.9328 26.0442 28.9328C25.7032 28.9328 25.4016 29.1281 25.1224 29.5316C24.3787 30.6055 23.393 31.4663 22.4397 32.2997C21.9437 32.7333 21.4304 33.1812 20.9573 33.6543C20.7786 33.8294 20.6314 33.9105 20.4939 33.9105C20.3629 33.9105 20.2294 33.8344 20.0862 33.6773C19.5937 33.1345 19.0065 32.6859 18.4383 32.2523C18.098 31.9924 17.7577 31.7326 17.4343 31.4512C15.8248 30.0542 15.1569 28.4799 15.3923 26.6372C15.3995 26.5783 15.3995 26.513 15.3995 26.4469C15.3991 26.3184 15.3991 26.1848 15.4612 26.1231C15.4939 26.0901 15.5459 26.0743 15.6206 26.0743C15.6522 26.0743 15.6873 26.0771 15.7265 26.0829C15.8506 26.103 15.9723 26.1166 16.0869 26.1166C16.4842 26.1166 16.7344 25.9436 16.8514 25.5877C17.0477 24.9716 16.613 24.6429 16.2294 24.3536L16.1544 24.2969C14.5872 23.1152 13.3794 21.5589 12.462 19.5399C11.854 18.2022 11.7919 16.8616 12.278 15.5547C13.0522 13.437 14.004 12.0246 15.4114 10.9388C15.6422 10.7586 15.7815 10.6499 15.9075 10.6499C16.0205 10.6499 16.1522 10.7375 16.3777 10.9629C19.4591 14.0207 22.3269 15.9607 25.403 17.068C26.128 17.3301 26.3535 17.7202 26.2063 18.4599L26.1115 18.9657C25.7626 20.8412 25.4325 22.6129 23.9113 23.9409C23.6995 24.1248 23.5768 24.3544 23.566 24.5898C23.5559 24.8009 23.6399 25.0048 23.8072 25.1778C23.9665 25.3429 24.1511 25.4269 24.3557 25.4269C24.574 25.4269 24.808 25.3321 25.0541 25.1454C25.9106 24.4965 26.5358 23.6559 26.9127 22.6472C27.4569 21.2007 27.7799 19.8378 27.9005 18.48C27.945 17.9434 28.0046 17.6031 28.4619 17.3981C28.8561 17.224 29.0204 16.8709 28.9012 16.4527C28.8008 16.1088 28.5287 15.9106 28.136 15.8945C26.179 15.8073 24.528 14.9832 22.6501 13.7732C19.3371 11.6401 16.8694 9.55508 15.5941 6.31133C15.3888 5.77836 15.1139 5.51953 14.7532 5.51953C14.6351 5.51953 14.5073 5.54859 14.3734 5.60602C14.1362 5.70859 13.9765 5.86266 13.8993 6.06359C13.8034 6.31375 13.8394 6.63539 14.0034 6.9932C14.2457 7.52195 14.5239 8.04094 14.8186 8.59078C14.9568 8.84852 15.0993 9.11414 15.2446 9.39305C14.7981 9.50758 14.3358 9.66406 13.932 9.98172C11.8638 11.5941 10.6872 13.8144 10.3351 16.7705C10.0182 19.407 11.3526 21.5422 12.8422 23.4567C13.758 24.6355 13.689 25.9721 13.6222 27.2642C13.5874 27.9348 13.5519 28.6289 13.6524 29.3002C13.6585 29.3332 13.5726 29.4207 13.521 29.4732C13.4769 29.5184 13.4323 29.5643 13.3993 29.6088C12.489 30.8478 11.3947 32.0108 9.56655 32.1314C9.10248 32.1587 8.64194 32.2965 8.19655 32.43C7.8724 32.5277 7.53717 32.6281 7.20623 32.6841C5.09467 33.0302 3.68436 34.2785 2.89506 36.5003C2.84983 36.6274 2.7899 36.7645 2.72779 36.9052C2.53217 37.351 2.31076 37.8557 2.47553 38.2506C2.5599 38.453 2.74006 38.6095 3.01139 38.7129C3.1449 38.7645 3.26983 38.7896 3.38248 38.7896C3.95967 38.7896 4.14162 38.163 4.3024 37.6102C4.34764 37.4551 4.39108 37.3043 4.4417 37.1766C5.06694 35.5886 6.09319 34.6662 7.57873 34.3567C8.35803 34.1945 9.13217 34.005 9.90608 33.817C10.3666 33.7049 10.8271 33.593 11.2887 33.4853C11.4523 33.4479 11.5995 33.4293 11.7384 33.4293C12.139 33.4293 12.4674 33.5858 12.7725 33.9217C13.5352 34.7673 14.3338 35.6001 15.1058 36.407C15.519 36.8377 15.9325 37.2692 16.3428 37.7049C16.8633 38.2584 17.2559 38.4945 17.6562 38.4945C18.0402 38.4945 18.4444 38.2684 18.9662 37.7595L19.1144 37.6152C19.6981 37.0431 20.0197 36.7279 20.2749 36.7279C20.5484 36.7279 20.8223 37.0976 21.3679 37.8356L21.4669 37.9691C21.5962 38.15 21.749 38.3539 21.9407 38.504C22.1417 38.6569 22.3786 38.7452 22.5911 38.7452C22.8065 38.7452 22.9801 38.6583 23.0965 38.4931C23.543 37.8384 24.1532 37.3123 24.7447 36.8033C25.4798 36.1702 26.2408 35.5155 26.6844 34.6095C27.1847 33.5852 27.8516 33.1077 28.7813 33.1077C29.108 33.1077 29.4655 33.1666 29.8732 33.2857C30.1001 33.3539 30.3384 33.3941 30.5623 33.4272C33.4403 33.8069 35.1653 35.4551 35.8373 38.4673C35.9392 38.9353 36.1287 39.4709 36.698 39.4709C36.7547 39.4709 36.815 39.4659 36.8796 39.4544C37.6003 39.3232 37.5816 38.6061 37.5716 38.1775ZM26.6456 31.5272L26.5811 31.6636C26.5408 31.7505 26.5007 31.838 26.4483 31.9213C25.4863 33.5294 24.3241 34.9005 22.9961 35.9966C22.8145 36.1452 22.6716 36.2149 22.5452 36.2149C22.4124 36.2149 22.2818 36.1373 22.1332 35.9708C21.8223 35.6191 21.6458 35.3605 22.0169 34.9959C22.5237 34.5041 23.0707 34.0361 23.6005 33.5831C24.4161 32.8854 25.2589 32.1647 25.9824 31.3362C26.07 31.2364 26.159 31.1854 26.2473 31.1854C26.3966 31.1855 26.5445 31.3363 26.6456 31.5272ZM17.2362 36.1416C17.1928 36.087 17.1501 36.0339 17.1074 35.9888C16.6681 35.5329 16.2359 35.067 15.8037 34.6011C15.2147 33.9665 14.6254 33.3311 14.0159 32.7174C13.7951 32.497 13.6889 32.2953 13.6918 32.1014C13.6961 31.8049 13.9545 31.5602 14.2047 31.3248L14.3346 31.1998C14.4674 31.067 14.584 30.9996 14.6813 30.9996C14.8551 30.9996 14.9789 31.2271 15.0883 31.4281C15.1328 31.51 15.1759 31.5882 15.2201 31.6499C15.7545 32.3901 16.4741 32.932 17.1698 33.4561C17.6249 33.7985 18.0955 34.1531 18.5051 34.5573L18.6274 34.67C18.8087 34.8344 18.9803 34.9895 19.024 35.2055C18.7638 35.6663 18.3783 36.0562 17.8442 36.3971C17.7767 36.4416 17.7146 36.4632 17.6554 36.4632C17.4958 36.4632 17.3637 36.2996 17.2362 36.1416Z" fill="#2B4775"/>
<path fill-rule="evenodd" clip-rule="evenodd" d="M7.79379 21.7434C7.94168 21.762 8.07809 21.7713 8.20293 21.7713C9.02637 21.7713 9.38777 21.3499 9.41152 20.3625C9.44566 18.7786 9.44348 17.2233 9.40465 15.7402C9.32645 13.0949 9.74887 10.5579 10.6961 7.9847C11.3871 6.09494 12.6957 4.58525 14.5852 3.49767C16.1013 2.63189 17.7416 2.19291 19.4609 2.19291C23.6751 2.19291 27.4611 4.83033 28.6686 8.60705C29.3886 10.8421 29.6764 12.8525 29.5487 14.762C29.6263 16.4336 29.5157 17.9142 29.2114 19.2878C28.8934 20.6755 28.5394 21.9077 28.1303 23.0549C27.3965 25.1122 26.0183 26.4431 24.0334 27.0095L23.9257 27.0405C23.7786 27.0835 23.6264 27.1273 23.4914 27.1273C23.3393 27.1273 23.2329 27.0692 23.1582 26.9428C22.5431 25.9156 21.6235 25.777 20.8044 25.777C20.5603 25.777 20.3119 25.7899 20.0632 25.8028L19.9147 25.8108C18.658 25.879 17.8543 26.6672 17.7654 27.9191C17.6681 29.1782 18.4771 30.2149 19.6892 30.3835C19.9824 30.4245 20.2477 30.4445 20.4997 30.4445C21.4864 30.4445 22.2509 30.1258 22.8374 29.4696C23.253 29.0138 23.8181 28.825 24.3169 28.7001C27.1554 27.9693 29.0053 26.1251 29.9708 23.062C30.1919 22.3656 30.4992 22.1201 31.1875 22.09C32.8437 22.0081 33.8674 21.1754 34.2328 19.6134C34.624 17.9375 34.5092 16.2419 33.8911 14.5736C33.5774 13.7283 33.0886 13.266 32.4776 13.2366C31.3879 13.1702 31.2831 12.4792 31.161 11.6792L31.1437 11.5639C30.7661 9.06572 30.1215 7.15837 29.1121 5.56111C27.5638 3.08955 23.8811 0.429077 19.4558 0.429077C18.3543 0.429077 17.2721 0.602437 16.2397 0.944546C12.8966 2.0565 10.7921 3.73267 9.61707 6.22009C8.66301 8.23986 8.07184 10.1142 7.80949 11.9501C7.71621 12.598 7.48106 12.8374 6.87879 12.8977C5.80629 12.9992 5.11496 13.6916 4.93191 14.8474C4.7891 15.7993 4.64012 16.926 4.61855 18.067C4.57199 20.5841 5.31395 21.4426 7.79379 21.7434ZM7.14371 14.6915L7.18535 14.7589C7.50332 14.7851 7.5809 15.0091 7.60277 15.3605L7.63762 16.0787C7.68715 17.1035 7.73668 18.1311 7.76902 19.1533L7.77441 19.2811C7.7927 19.6404 7.77871 19.8619 7.43449 19.9031C7.38926 19.9089 7.34504 19.9117 7.30207 19.9117C6.94238 19.9117 6.66535 19.7057 6.52246 19.3328C6.37426 18.9278 6.38574 18.519 6.39832 18.0858C6.40371 17.8995 6.40871 17.7129 6.40082 17.5284C6.37926 16.6849 6.45684 15.9441 6.6377 15.2628C6.73027 14.9131 6.88504 14.7574 7.1391 14.7574V14.692C7.1409 14.6922 7.14191 14.6915 7.14371 14.6915ZM31.8186 14.9807C32.0605 14.9807 32.2421 15.1362 32.3584 15.4434C32.6369 16.1498 32.7863 16.9333 32.7589 17.5428C32.7453 18.8676 32.6499 19.8421 31.5343 20.3198C31.3447 20.3995 31.2011 20.4379 31.0935 20.4379C31.0131 20.4379 30.9542 20.4161 30.914 20.3705C30.8372 20.2825 30.8156 20.0995 30.8508 19.826C30.9082 19.3924 30.9836 18.961 31.0582 18.5291C31.2226 17.5779 31.3935 16.5945 31.3705 15.6013C31.3633 15.2581 31.425 15.0219 31.7496 14.9845C31.7741 14.9819 31.7964 14.9807 31.8186 14.9807Z" fill="#2B4775"/>
</svg>
