<svg width="40" height="40" viewBox="0 0 40 40" fill="none" xmlns="http://www.w3.org/2000/svg">
<path d="M12 13.3334V17.3334L14.6667 18.6667" stroke="#2B4775" stroke-width="2" stroke-miterlimit="10" stroke-linecap="round" stroke-linejoin="round"/>
<path d="M30.6667 21.3333V16C30.6667 15.264 31.264 14.6667 32 14.6667H35.8093L35.3587 13.616C34.9387 12.636 33.9747 12 32.908 12H24V30.6667H28.0667C27.9547 30.1147 27.976 29.516 28.1827 28.8987C28.532 27.8533 29.4293 27.0267 30.5 26.768C32.7027 26.2347 34.6667 27.888 34.6667 30C34.6667 30.228 34.6427 30.4507 34.6 30.6667H38.6667V21.3333H30.6667Z" fill="#2B4775"/>
<path d="M31.3333 33.3333C33.1743 33.3333 34.6667 31.8409 34.6667 30C34.6667 28.159 33.1743 26.6666 31.3333 26.6666C29.4924 26.6666 28 28.159 28 30C28 31.8409 29.4924 33.3333 31.3333 33.3333Z" stroke="#2B4775" stroke-width="2" stroke-miterlimit="10"/>
<path d="M9.99996 33.3333C11.8409 33.3333 13.3333 31.8409 13.3333 30C13.3333 28.159 11.8409 26.6666 9.99996 26.6666C8.15901 26.6666 6.66663 28.159 6.66663 30C6.66663 31.8409 8.15901 33.3333 9.99996 33.3333Z" stroke="#2B4775" stroke-width="2" stroke-miterlimit="10"/>
<path d="M37.3334 29.3334H38.6667" stroke="#2B4775" stroke-width="2" stroke-miterlimit="10" stroke-linecap="round"/>
<path d="M1.33337 29.3334H4.00004" stroke="#2B4775" stroke-width="2" stroke-miterlimit="10" stroke-linecap="round"/>
<path d="M21.3334 6.66663H4.00004C2.52671 6.66663 1.33337 7.85996 1.33337 9.33329V30.6666H6.73337C6.62137 30.1146 6.64271 29.516 6.84937 28.8986C7.19871 27.8533 8.09604 27.0266 9.16804 26.768C11.3694 26.2346 13.3334 27.888 13.3334 30C13.3334 30.228 13.3094 30.4506 13.2667 30.6666H24V9.33329C24 7.85996 22.8067 6.66663 21.3334 6.66663ZM12 24C8.31871 24 5.33337 21.0146 5.33337 17.3333C5.33337 13.652 8.31871 10.6666 12 10.6666C15.6814 10.6666 18.6667 13.652 18.6667 17.3333C18.6667 21.0146 15.6814 24 12 24Z" fill="#2B4775"/>
</svg>
