<svg width="100" height="100" viewBox="0 0 100 100" fill="none" xmlns="http://www.w3.org/2000/svg">
<path d="M86.6667 86.6667C90.3486 86.6667 93.3333 83.6819 93.3333 80C93.3333 76.3181 90.3486 73.3333 86.6667 73.3333C82.9848 73.3333 80 76.3181 80 80C80 83.6819 82.9848 86.6667 86.6667 86.6667Z" fill="#E76161"/>
<path d="M56.6666 16.6667C56.6666 20.35 53.6833 20 50 20C46.3166 20 43.3333 20.35 43.3333 16.6667C43.3333 12.9833 46.3166 10 50 10C53.6833 10 56.6666 12.9833 56.6666 16.6667Z" fill="#E76161"/>
<path d="M13.3334 86.6667C17.0153 86.6667 20 83.6819 20 80C20 76.3181 17.0153 73.3333 13.3334 73.3333C9.65146 73.3333 6.66669 76.3181 6.66669 80C6.66669 83.6819 9.65146 86.6667 13.3334 86.6667Z" fill="#E76161"/>
<path d="M56.1201 14.0333L50.0001 13.3333L43.8801 14.0333L7.66681 76.4933L13.8135 86.6667H50.0001H86.1868L92.3335 76.4933L56.1201 14.0333ZM54.0401 37.8667L53.3735 59.4433H46.6268L45.9601 37.8667H54.0401ZM50.0101 73.9633C47.2501 73.9633 45.6001 72.4933 45.6001 70.0233C45.6001 67.5067 47.2468 66.0367 50.0101 66.0367C52.7501 66.0367 54.3968 67.5067 54.3968 70.0233C54.3968 72.4933 52.7501 73.9633 50.0101 73.9633Z" fill="#E76161"/>
</svg>
