<svg width="100" height="100" viewBox="0 0 100 100" fill="none" xmlns="http://www.w3.org/2000/svg">
<path d="M12.5001 90.625C12.0888 90.6274 11.6811 90.5485 11.3003 90.393C10.9196 90.2375 10.5733 90.0084 10.2813 89.7187C9.9884 89.4282 9.75592 89.0826 9.59727 88.7018C9.43862 88.321 9.35693 87.9125 9.35693 87.5C9.35693 87.0875 9.43862 86.679 9.59727 86.2982C9.75592 85.9174 9.9884 85.5718 10.2813 85.2813L85.2813 10.2812C85.8698 9.6928 86.6679 9.36221 87.5001 9.36221C88.3322 9.36221 89.1304 9.6928 89.7188 10.2812C90.3072 10.8697 90.6378 11.6678 90.6378 12.5C90.6378 13.3322 90.3072 14.1303 89.7188 14.7187L14.7188 89.7187C14.4268 90.0084 14.0805 90.2375 13.6998 90.393C13.319 90.5485 12.9113 90.6274 12.5001 90.625Z" fill="#9C9C9C"/>
<path d="M87.5001 90.625C87.0888 90.6274 86.6811 90.5485 86.3004 90.393C85.9196 90.2375 85.5733 90.0084 85.2813 89.7187L10.2813 14.7187C9.69289 14.1303 9.3623 13.3322 9.3623 12.5C9.3623 11.6678 9.69289 10.8697 10.2813 10.2812C10.8698 9.6928 11.6679 9.36221 12.5001 9.36221C13.3323 9.36221 14.1304 9.6928 14.7188 10.2812L89.7188 85.2813C90.0117 85.5718 90.2442 85.9174 90.4029 86.2982C90.5615 86.679 90.6432 87.0875 90.6432 87.5C90.6432 87.9125 90.5615 88.321 90.4029 88.7018C90.2442 89.0826 90.0117 89.4282 89.7188 89.7187C89.4268 90.0084 89.0805 90.2375 88.6998 90.393C88.3191 90.5485 87.9114 90.6274 87.5001 90.625Z" fill="#9C9C9C"/>
</svg>
