<svg width="16" height="8" viewBox="0 0 16 8" fill="none" xmlns="http://www.w3.org/2000/svg">
<g clip-path="url(#clip0)">
<path d="M13.1782 8H2.88956C2.69466 8 2.50773 7.93058 2.36991 7.80699C2.23209 7.68341 2.15466 7.51579 2.15466 7.34102V0.75115C2.15466 0.576376 2.23209 0.40876 2.36991 0.285176C2.50773 0.161592 2.69466 0.0921631 2.88956 0.0921631H13.1782C13.3731 0.0921631 13.56 0.161592 13.6978 0.285176C13.8356 0.40876 13.9131 0.576376 13.9131 0.75115V7.34102C13.9131 7.51579 13.8356 7.68341 13.6978 7.80699C13.56 7.93058 13.3731 8 13.1782 8Z" fill="#EAEAEA"/>
<path d="M3.62447 8H2.88957C2.69466 8 2.50773 7.93058 2.36991 7.80699C2.23209 7.68341 2.15466 7.51579 2.15466 7.34102V0.75115C2.15466 0.664611 2.17367 0.578919 2.2106 0.498967C2.24754 0.419015 2.30167 0.346368 2.36991 0.285176C2.43815 0.223983 2.51917 0.175443 2.60833 0.142325C2.69749 0.109208 2.79306 0.0921631 2.88957 0.0921631C2.98608 0.0921631 3.08164 0.109208 3.1708 0.142325C3.25996 0.175443 3.34098 0.223983 3.40922 0.285176C3.47746 0.346368 3.5316 0.419015 3.56853 0.498967C3.60546 0.578919 3.62447 0.664611 3.62447 0.75115V8Z" fill="#D54C3F"/>
<path d="M12.4432 8H13.1781C13.373 8 13.56 7.93058 13.6978 7.80699C13.8356 7.68341 13.913 7.51579 13.913 7.34102V0.75115C13.913 0.576376 13.8356 0.40876 13.6978 0.285176C13.56 0.161592 13.373 0.0921631 13.1781 0.0921631C12.9832 0.0921631 12.7963 0.161592 12.6585 0.285176C12.5207 0.40876 12.4432 0.576376 12.4432 0.75115V8Z" fill="#B63524"/>
<path d="M13.599 1.29151C13.6781 1.24195 13.7456 1.1789 13.7975 1.10596C13.8495 1.03302 13.8849 0.951615 13.9018 0.866394C13.9187 0.781173 13.9167 0.693806 13.8959 0.60928C13.8751 0.524755 13.836 0.444727 13.7807 0.373764C13.7255 0.302802 13.6552 0.242296 13.5738 0.195701C13.4925 0.149106 13.4017 0.117333 13.3066 0.102198C13.2116 0.0870635 13.1142 0.0888622 13.0199 0.107492C12.9256 0.126122 12.8364 0.161217 12.7573 0.210776L8.03427 3.29417L8.03378 3.29439L8.03329 3.29417L3.31031 0.210776C3.15048 0.110688 2.95286 0.0716321 2.76093 0.102198C2.56899 0.132765 2.39845 0.23045 2.28683 0.373764C2.17521 0.517079 2.13166 0.694283 2.16575 0.866394C2.19983 1.0385 2.30877 1.19142 2.4686 1.29151L2.449 1.27855L8.03378 4.92472L13.599 1.29151ZM13.6188 1.27855L8.03378 4.92472L13.6188 1.27855Z" fill="#DE5145"/>
<path d="M13.1782 0.0921639C13.0216 0.0921639 12.8764 0.136096 12.7573 0.210781L8.03433 3.29418L8.03384 3.2944L8.03335 3.29418L3.31038 0.210781C3.18704 0.133373 3.04008 0.0919524 2.88953 0.0921639H13.1782Z" fill="#EFEFEF"/>
<path d="M3.62478 2.33005L2.38623 1.22998L2.38574 1.23086C2.41171 1.25283 2.43939 1.27303 2.46879 1.29149L2.44919 1.27853L3.62503 2.04625L3.62478 2.33796" fill="#C64132"/>
<path d="M7.21756 5.49387L3.62439 7.99999L3.62463 2.30261L7.21682 5.49299" fill="#E3E3E3"/>
<path d="M7.21757 5.49385L8.0338 4.92471L3.62463 2.04626V2.30261L7.21683 5.49297L7.21757 5.49385Z" fill="url(#paint0_linear)"/>
<path d="M10.0086 7.99997H12.4433V2.04602L8.03389 4.92469L7.21692 5.49296L10.0086 7.99997Z" fill="url(#paint1_linear)"/>
</g>
<defs>
<linearGradient id="paint0_linear" x1="3.62463" y1="3.77017" x2="8.0338" y2="3.77017" gradientUnits="userSpaceOnUse">
<stop stop-color="#C8C8C8"/>
<stop offset="1" stop-color="#CDCDCD"/>
</linearGradient>
<linearGradient id="paint1_linear" x1="7.21692" y1="5.02288" x2="12.4433" y2="5.02288" gradientUnits="userSpaceOnUse">
<stop stop-color="#D9D9D9"/>
<stop offset="1" stop-color="#E2E2E2"/>
</linearGradient>
<clipPath id="clip0">
<rect width="16" height="8" fill="white"/>
</clipPath>
</defs>
</svg>
