<svg width="16" height="16" viewBox="0 0 16 16" fill="none" xmlns="http://www.w3.org/2000/svg">
<path d="M4.05718 15.9434C3.10566 15.9001 2.58876 15.7418 2.24496 15.6077C1.7894 15.4303 1.46462 15.2192 1.12272 14.8778C0.780813 14.5363 0.569204 14.2115 0.392784 13.756C0.258686 13.4122 0.100336 12.8953 0.057063 11.9438C0.00951051 10.9152 0 10.6066 0 8.00071C0 5.39483 0.0104616 5.08669 0.0565875 4.05718C0.0998603 3.10566 0.259161 2.58971 0.392308 2.24496C0.569679 1.7894 0.781288 1.46462 1.12224 1.12224C1.46367 0.780813 1.78845 0.568728 2.24448 0.392308C2.58828 0.25821 3.10518 0.0998603 4.05671 0.0565875C5.08574 0.00951051 5.39483 0 7.99976 0C10.6056 0 10.9138 0.0104616 11.9433 0.0565875C12.8948 0.0998603 13.4108 0.259161 13.7555 0.392308C14.2111 0.568728 14.5359 0.780813 14.8778 1.12224C15.2197 1.46367 15.4303 1.78893 15.6077 2.24448C15.7418 2.58828 15.9001 3.10518 15.9434 4.05671C15.9905 5.08622 16 5.39436 16 8.00024C16 10.6052 15.9905 10.9143 15.9434 11.9438C15.9001 12.8953 15.7408 13.4122 15.6077 13.756C15.4303 14.2115 15.2192 14.5363 14.8778 14.8778C14.5363 15.2192 14.2111 15.4303 13.7555 15.6077C13.4117 15.7418 12.8948 15.9001 11.9433 15.9434C10.9147 15.9905 10.6056 16 7.99976 16C5.39483 16 5.08574 15.991 4.05718 15.9434Z" fill="url(#paint0_radial)"/>
<path d="M4.05718 15.9434C3.10566 15.9001 2.58876 15.7418 2.24496 15.6077C1.7894 15.4303 1.46462 15.2192 1.12272 14.8778C0.780813 14.5363 0.569204 14.2115 0.392784 13.756C0.258686 13.4122 0.100336 12.8953 0.057063 11.9438C0.00951051 10.9152 0 10.6066 0 8.00071C0 5.39483 0.0104616 5.08669 0.0565875 4.05718C0.0998603 3.10566 0.259161 2.58971 0.392308 2.24496C0.569679 1.7894 0.781288 1.46462 1.12224 1.12224C1.46367 0.780813 1.78845 0.568728 2.24448 0.392308C2.58828 0.25821 3.10518 0.0998603 4.05671 0.0565875C5.08574 0.00951051 5.39483 0 7.99976 0C10.6056 0 10.9138 0.0104616 11.9433 0.0565875C12.8948 0.0998603 13.4108 0.259161 13.7555 0.392308C14.2111 0.568728 14.5359 0.780813 14.8778 1.12224C15.2197 1.46367 15.4303 1.78893 15.6077 2.24448C15.7418 2.58828 15.9001 3.10518 15.9434 4.05671C15.9905 5.08622 16 5.39436 16 8.00024C16 10.6052 15.9905 10.9143 15.9434 11.9438C15.9001 12.8953 15.7408 13.4122 15.6077 13.756C15.4303 14.2115 15.2192 14.5363 14.8778 14.8778C14.5363 15.2192 14.2111 15.4303 13.7555 15.6077C13.4117 15.7418 12.8948 15.9001 11.9433 15.9434C10.9147 15.9905 10.6056 16 7.99976 16C5.39483 16 5.08574 15.991 4.05718 15.9434Z" fill="url(#paint1_radial)"/>
<path d="M6.03553 8.03408C6.03553 6.93986 6.92233 6.05259 8.01656 6.05259C9.11079 6.05259 9.99807 6.93986 9.99807 8.03408C9.99807 9.12829 9.11079 10.0156 8.01656 10.0156C6.92233 10.0156 6.03553 9.12829 6.03553 8.03408ZM4.96436 8.03408C4.96436 9.71979 6.33083 11.0862 8.01656 11.0862C9.70229 11.0862 11.0688 9.71979 11.0688 8.03408C11.0688 6.34836 9.70229 4.98191 8.01656 4.98191C6.33083 4.98191 4.96441 6.34827 4.96441 8.03408H4.96436ZM10.4764 4.86089C10.4763 5.00196 10.5181 5.13989 10.5964 5.25722C10.6747 5.37454 10.7861 5.46601 10.9164 5.52005C11.0467 5.57409 11.1901 5.58827 11.3285 5.5608C11.4669 5.53334 11.594 5.46546 11.6938 5.36574C11.7936 5.26603 11.8616 5.13896 11.8892 5.00061C11.9167 4.86226 11.9027 4.71884 11.8487 4.58848C11.7948 4.45812 11.7034 4.34669 11.5862 4.26827C11.4689 4.18984 11.331 4.14795 11.1899 4.1479H11.1896C11.0005 4.14799 10.8192 4.22312 10.6855 4.35681C10.5517 4.49049 10.4765 4.67179 10.4764 4.86089ZM5.61516 12.8724C5.03564 12.846 4.72066 12.7495 4.51133 12.6679C4.23381 12.5599 4.03581 12.4312 3.82762 12.2233C3.61944 12.0154 3.49057 11.8176 3.38301 11.5401C3.30141 11.3309 3.20488 11.0158 3.17853 10.4363C3.14971 9.80971 3.14396 9.6215 3.14396 8.03417C3.14396 6.44684 3.15019 6.25915 3.17853 5.63209C3.20492 5.05257 3.30217 4.73811 3.38301 4.52826C3.49105 4.25075 3.61972 4.05275 3.82762 3.84456C4.03552 3.63638 4.23334 3.50752 4.51133 3.39995C4.72056 3.31835 5.03564 3.22182 5.61516 3.19548C6.24171 3.16666 6.42993 3.16091 8.01656 3.16091C9.60319 3.16091 9.7916 3.16704 10.4187 3.19557C10.9982 3.22197 11.3127 3.31921 11.5225 3.40005C11.8 3.50761 11.998 3.63676 12.2062 3.84466C12.4144 4.05256 12.5428 4.25085 12.6508 4.52836C12.7324 4.73759 12.829 5.05267 12.8553 5.63218C12.8841 6.25925 12.8899 6.44694 12.8899 8.03427C12.8899 9.6216 12.8841 9.80929 12.8553 10.4364C12.8289 11.0159 12.7319 11.3309 12.6508 11.5402C12.5428 11.8177 12.4141 12.0157 12.2062 12.2234C11.9983 12.4311 11.8 12.56 11.5225 12.668C11.3133 12.7496 10.9982 12.8461 10.4187 12.8725C9.79212 12.9013 9.60391 12.9071 8.01656 12.9071C6.42921 12.9071 6.24152 12.9013 5.61516 12.8725V12.8724ZM5.56595 2.12608C4.93317 2.1549 4.50077 2.25524 4.12316 2.40217C3.73233 2.55391 3.40103 2.75748 3.07021 3.08777C2.73938 3.41807 2.53634 3.74941 2.3846 4.14072C2.23766 4.51856 2.13732 4.95072 2.10851 5.58349C2.07921 6.21726 2.07251 6.41988 2.07251 8.03408C2.07251 9.64828 2.07921 9.85089 2.10851 10.4847C2.13732 11.1175 2.23766 11.5496 2.3846 11.9274C2.53634 12.3183 2.73943 12.6502 3.07021 12.9804C3.40098 13.3105 3.73185 13.5138 4.12316 13.666C4.50149 13.8129 4.93317 13.9133 5.56595 13.9421C6.20006 13.9709 6.40235 13.9781 8.01656 13.9781C9.63077 13.9781 9.8334 13.9714 10.4672 13.9421C11.1 13.9133 11.5321 13.8129 11.91 13.666C12.3008 13.5138 12.6321 13.3107 12.9629 12.9804C13.2937 12.6501 13.4964 12.3183 13.6485 11.9274C13.7955 11.5496 13.8963 11.1174 13.9246 10.4847C13.9534 9.85042 13.9601 9.64828 13.9601 8.03408C13.9601 6.41988 13.9534 6.21726 13.9246 5.58349C13.8958 4.95067 13.7955 4.51833 13.6485 4.14072C13.4964 3.74989 13.2932 3.41859 12.9629 3.08777C12.6326 2.75696 12.3008 2.55391 11.9104 2.40217C11.5321 2.25524 11.1 2.15443 10.4677 2.12608C9.83378 2.09713 9.63125 2.09009 8.01727 2.09009C6.4033 2.09009 6.2003 2.09679 5.56619 2.12608" fill="white"/>
<defs>
<radialGradient id="paint0_radial" cx="0" cy="0" r="1" gradientUnits="userSpaceOnUse" gradientTransform="translate(1.0355 15.6495) scale(20.3141)">
<stop offset="0.09" stop-color="#FA8F21"/>
<stop offset="0.78" stop-color="#D82D7E"/>
</radialGradient>
<radialGradient id="paint1_radial" cx="0" cy="0" r="1" gradientUnits="userSpaceOnUse" gradientTransform="translate(11.0826 15.1357) scale(17.8766)">
<stop offset="0.64" stop-color="#8C3AAA" stop-opacity="0"/>
<stop offset="1" stop-color="#8C3AAA"/>
</radialGradient>
</defs>
</svg>
