<svg width="32" height="32" viewBox="0 0 32 32" fill="none" xmlns="http://www.w3.org/2000/svg">
<path d="M28.5713 1.14286V30.8571C28.5713 31.1602 28.4509 31.4509 28.2366 31.6653C28.0223 31.8796 27.7316 32 27.4285 32H4.57132C4.26822 32 3.97753 31.8796 3.7632 31.6653C3.54887 31.4509 3.42847 31.1602 3.42847 30.8571V28.5714H5.71418V29.7143H26.2856V2.28571H5.71418V5.71429H3.42847V1.14286C3.42847 0.839753 3.54887 0.549062 3.7632 0.334735C3.97753 0.120408 4.26822 0 4.57132 0H27.4285C27.7316 0 28.0223 0.120408 28.2366 0.334735C28.4509 0.549062 28.5713 0.839753 28.5713 1.14286ZM11.7599 20.9029L13.3828 22.5257L19.097 16.8114C19.2042 16.7052 19.2892 16.5788 19.3472 16.4395C19.4052 16.3002 19.4351 16.1509 19.4351 16C19.4351 15.8491 19.4052 15.6998 19.3472 15.5605C19.2892 15.4212 19.2042 15.2948 19.097 15.1886L13.3828 9.47429L11.7599 11.0971L15.5313 14.8571H3.42847V17.1429H15.5313L11.7599 20.9029Z" fill="#2B4775"/>
</svg>
