<svg width="32" height="32" viewBox="0 0 32 32" fill="none" xmlns="http://www.w3.org/2000/svg">
<path d="M28.6429 1.14286V30.8571C28.6429 31.1602 28.5225 31.4509 28.3082 31.6653C28.0939 31.8796 27.8032 32 27.5001 32H4.64293C4.33982 32 4.04913 31.8796 3.8348 31.6653C3.62048 31.4509 3.50007 31.1602 3.50007 30.8571V28.5714H5.78578V29.7143H26.3572V2.28571H5.78578V5.71429H3.50007V1.14286C3.50007 0.839753 3.62048 0.549062 3.8348 0.334735C4.04913 0.120408 4.33982 0 4.64293 0H27.5001C27.8032 0 28.0939 0.120408 28.3082 0.334735C28.5225 0.549062 28.6429 0.839753 28.6429 1.14286ZM10.0258 20.9029L6.25436 17.1429H18.3572V14.8571H6.25436L10.0258 11.0971L8.40293 9.47429L2.68864 15.1886C2.58152 15.2948 2.4965 15.4212 2.43848 15.5605C2.38046 15.6998 2.35059 15.8491 2.35059 16C2.35059 16.1509 2.38046 16.3002 2.43848 16.4395C2.4965 16.5788 2.58152 16.7052 2.68864 16.8114L8.40293 22.5257L10.0258 20.9029Z" fill="#E76161"/>
</svg>
