<svg width="20" height="20" viewBox="0 0 20 20" fill="none" xmlns="http://www.w3.org/2000/svg">
<path d="M10 0C4.47708 0 0 4.47708 0 10C0 15.5229 4.47708 20 10 20C15.5225 20 20 15.5229 20 10C20 4.47708 15.5225 0 10 0ZM6.79167 14.3821C6.2425 14.3821 5.79708 13.9371 5.79708 13.3875C5.79708 12.8379 6.24208 12.3929 6.79167 12.3929C7.34125 12.3929 7.78625 12.8379 7.78625 13.3875C7.78625 13.9371 7.34125 14.3821 6.79167 14.3821ZM11.9354 14.3821C11.3862 14.3821 10.9408 13.9371 10.9408 13.3875C10.9408 12.8379 11.3858 12.3929 11.9354 12.3929C12.485 12.3929 12.93 12.8379 12.93 13.3875C12.93 13.9371 12.4846 14.3821 11.9354 14.3821ZM15.3038 6.30208C15.3142 6.77 14.9646 6.84083 14.8042 6.84917H14.7246C14.0767 6.85958 13.9196 7.27833 13.8829 7.42792L13.8717 7.48417L13.6904 8.33333L13.0629 11.81H5.99875L4.69542 7.62625H12.0875C12.5287 7.62625 12.6708 7.39917 12.7183 7.2575L12.9325 6.31583V6.31667L12.9529 6.13875C12.9537 6.13417 13.0288 5.61833 13.6763 5.61833H14.5746C14.5746 5.61833 15.3038 5.59875 15.3038 6.22375V6.30208Z" fill="#2B4775"/>
</svg>
