<svg width="18" height="16" viewBox="0 0 18 16" fill="none" xmlns="http://www.w3.org/2000/svg">
<path d="M9.00008 0.5C9.00008 0.5 3.84508 4.95 0.964248 7.36C0.795081 7.51333 0.666748 7.73667 0.666748 8C0.666748 8.46083 1.03925 8.83333 1.50008 8.83333H3.16675V14.6667C3.16675 15.1275 3.53925 15.5 4.00008 15.5H6.50008C6.96092 15.5 7.33342 15.1267 7.33342 14.6667V11.3333H10.6667V14.6667C10.6667 15.1267 11.0392 15.5 11.5001 15.5H14.0001C14.4609 15.5 14.8334 15.1275 14.8334 14.6667V8.83333H16.5001C16.9609 8.83333 17.3334 8.46083 17.3334 8C17.3334 7.73667 17.2051 7.51333 17.0142 7.36C14.1534 4.95 9.00008 0.5 9.00008 0.5Z" fill="#2B4775"/>
</svg>
