<svg width="16" height="16" viewBox="0 0 16 16" fill="none" xmlns="http://www.w3.org/2000/svg">
<path d="M4.41667 7.19667C5.37667 9.08333 6.92 10.6267 8.81 11.5867L10.2767 10.1167C10.46 9.93333 10.7233 9.88 10.9533 9.95333C11.7 10.2 12.5033 10.3333 13.3333 10.3333C13.7033 10.3333 14 10.63 14 11V13.3333C14 13.7033 13.7033 14 13.3333 14C7.07333 14 2 8.92667 2 2.66667C2 2.29667 2.3 2 2.66667 2H5C5.37 2 5.66667 2.29667 5.66667 2.66667C5.66667 3.49667 5.8 4.3 6.04667 5.04667C6.12 5.27667 6.06667 5.54 5.88333 5.72333L4.41667 7.19667Z" fill="#2B4775"/>
</svg>
