<svg width="40" height="40" viewBox="0 0 40 40" fill="none" xmlns="http://www.w3.org/2000/svg">
<path d="M30.1567 13.5675L27.8125 5.07837L14.115 8.93254L16.3017 17.4217L30.1567 13.5675Z" fill="#2B4775"/>
<path d="M12.8108 22.7267L12.8125 22.7342L15.0517 22.0575L9.63499 1.01587H0.36499V3.9842H7.07166L11.7967 23.0342L12.8108 22.7267Z" fill="#2B4775"/>
<path d="M39.03 25.8909L38.75 24.7134L24.4617 28.6884L25.5658 32.1534L39.635 28.055L39.115 25.8675L39.03 25.8909Z" fill="#2B4775"/>
<path d="M21.2759 27.5724L22.2925 26.5558L20.4492 24.7116L19.4334 25.7291C18.8425 25.3374 18.1825 25.0458 17.4767 24.8624V23.3433H14.205V24.8624C13.4842 25.0491 12.8092 25.3491 12.2084 25.7533L11.2334 24.7774L9.39004 26.6208L10.3817 27.6124C10.0025 28.1924 9.71837 28.8399 9.53921 29.5283H8.02087V32.7983H9.53921C9.72254 33.5041 10.0142 34.1658 10.4067 34.7574L9.39004 35.7733L11.2334 37.6158L12.25 36.5991C12.8425 36.9924 13.505 37.2849 14.2125 37.4674V38.9841H17.4717V37.4674C18.1634 37.2899 18.8109 37.0033 19.3934 36.6249L20.45 37.6808L22.2934 35.8391L21.2525 34.7966C21.6592 34.1924 21.9609 33.5133 22.1459 32.7891H23.6625V29.5408H22.1459C21.9634 28.8316 21.6709 28.1666 21.2759 27.5724V27.5724ZM15.8417 33.8449C14.3609 33.8449 13.1609 32.6449 13.1609 31.1633C13.1609 29.6833 14.3609 28.4824 15.8417 28.4824C17.3217 28.4824 18.5225 29.6824 18.5225 31.1633C18.5225 32.6449 17.3217 33.8449 15.8417 33.8449V33.8449Z" fill="#2B4775"/>
<path d="M17.8566 23.0341C21.1557 22.4483 22.8382 24.7241 22.8382 24.7241C22.8441 24.7299 22.8499 24.7358 22.8557 24.7416C22.8807 24.7683 22.9007 24.7933 22.9241 24.8191C23.2549 25.2274 23.4941 25.8316 23.4941 25.8316L23.6332 26.2683L39.6357 21.8483L37.3441 13.3583L16.8232 18.9833L17.8566 23.0341V23.0341Z" fill="#2B4775"/>
</svg>
