<svg width="18" height="18" viewBox="0 0 18 18" fill="none" xmlns="http://www.w3.org/2000/svg">
<path d="M15.1916 9.81251C15.225 9.54584 15.25 9.27501 15.25 9.00001C15.25 8.72501 15.225 8.45417 15.1916 8.18751L16.9541 6.80834C17.1125 6.68334 17.1583 6.45834 17.0541 6.275L15.3875 3.38751C15.2833 3.20834 15.0666 3.13334 14.8791 3.20834L12.8041 4.04584C12.375 3.71667 11.9041 3.43751 11.3958 3.22501L11.0833 1.01667C11.0458 0.820838 10.875 0.666672 10.6666 0.666672H7.33331C7.12498 0.666672 6.95415 0.820838 6.92081 1.01667L6.60831 3.22501C6.09998 3.43751 5.62915 3.71251 5.19998 4.04584L3.12498 3.20834C2.93748 3.13751 2.72081 3.20834 2.61665 3.38751L0.949978 6.275C0.845812 6.45417 0.891645 6.67917 1.04998 6.80834L2.80831 8.18751C2.77498 8.45417 2.74998 8.72501 2.74998 9.00001C2.74998 9.27501 2.77498 9.54584 2.80831 9.81251L1.04998 11.1917C0.891645 11.3167 0.845812 11.5417 0.949978 11.725L2.61665 14.6125C2.72081 14.7917 2.93748 14.8667 3.12498 14.7917L5.19998 13.9542C5.62915 14.2833 6.09998 14.5625 6.60831 14.775L6.92081 16.9833C6.95415 17.1792 7.12498 17.3333 7.33331 17.3333H10.6666C10.875 17.3333 11.0458 17.1792 11.0791 16.9833L11.3916 14.775C11.9 14.5625 12.3708 14.2875 12.8 13.9542L14.875 14.7917C15.0625 14.8625 15.2791 14.7917 15.3833 14.6125L17.05 11.725C17.1541 11.5458 17.1083 11.3208 16.95 11.1917L15.1916 9.81251ZM8.99998 11.9167C7.38748 11.9167 6.08331 10.6125 6.08331 9.00001C6.08331 7.38751 7.38748 6.08334 8.99998 6.08334C10.6125 6.08334 11.9166 7.38751 11.9166 9.00001C11.9166 10.6125 10.6125 11.9167 8.99998 11.9167Z" fill="#2B4775"/>
</svg>
