<svg width="16" height="16" viewBox="0 0 16 16" fill="none" xmlns="http://www.w3.org/2000/svg">
<path d="M10.885 12.935C9.86955 12.9177 8.86084 12.7664 7.885 12.485C6.62772 12.1031 5.30566 11.9823 4 12.13C3.35978 12.208 2.72517 12.3265 2.1 12.485C2.0262 12.5037 1.9491 12.5054 1.87458 12.4898C1.80006 12.4742 1.73009 12.4417 1.67 12.395C1.61406 12.346 1.56977 12.285 1.54036 12.2167C1.51095 12.1484 1.49716 12.0743 1.5 12V4C1.49667 3.88578 1.53256 3.77387 1.6017 3.6829C1.67084 3.59192 1.76906 3.52738 1.88 3.5C2.60931 3.31732 3.35144 3.19029 4.1 3.12C5.44633 2.99285 6.80454 3.12698 8.1 3.515C9.29972 3.87537 10.558 3.99933 11.805 3.88C12.5052 3.80536 13.1988 3.67834 13.88 3.5C13.9538 3.48127 14.0309 3.47965 14.1054 3.49524C14.1799 3.51084 14.2499 3.54325 14.31 3.59C14.3716 3.63863 14.4209 3.70108 14.454 3.77231C14.487 3.84354 14.5027 3.92154 14.5 4V12C14.5033 12.1142 14.4674 12.2261 14.3983 12.3171C14.3292 12.4081 14.2309 12.4726 14.12 12.5C13.4525 12.6705 12.7743 12.7958 12.09 12.875C11.6898 12.9179 11.2875 12.9379 10.885 12.935ZM5.115 11.065C6.13044 11.0823 7.13915 11.2336 8.115 11.515C9.36435 11.8935 10.6776 12.0142 11.975 11.87C12.4797 11.8107 12.9805 11.7223 13.475 11.605V4.63C12.9551 4.74163 12.4292 4.82343 11.9 4.875C10.5467 5.00998 9.18007 4.88266 7.875 4.5C6.68371 4.1403 5.43405 4.01466 4.195 4.13C3.62476 4.18078 3.05852 4.26931 2.5 4.395V11.395C2.96578 11.2944 3.43639 11.2176 3.91 11.165C4.30943 11.1087 4.71175 11.0753 5.115 11.065Z" fill="#2B4775"/>
<path d="M2.18515 6.50009H1.96015C1.83459 6.49001 1.71747 6.43292 1.63218 6.34022C1.5469 6.24752 1.49975 6.12605 1.50015 6.00009V4.00009C1.49682 3.88587 1.53272 3.77396 1.60186 3.68298C1.671 3.59201 1.76921 3.52746 1.88015 3.50009C2.60946 3.3174 3.3516 3.19037 4.10015 3.12009C4.22016 3.10826 4.3404 3.14021 4.43871 3.21004C4.53703 3.27987 4.60679 3.38288 4.63515 3.50009C4.66999 3.66443 4.68675 3.8321 4.68515 4.00009C4.68515 4.66313 4.42176 5.29901 3.95292 5.76785C3.48408 6.23669 2.84819 6.50009 2.18515 6.50009ZM2.50015 4.39509V5.46509C2.80608 5.39947 3.08383 5.23983 3.29453 5.00852C3.50522 4.7772 3.6383 4.4858 3.67515 4.17509C3.31015 4.23009 2.92015 4.30009 2.50015 4.39509Z" fill="#2B4775"/>
<path d="M13.84 6.49998C13.2628 6.50125 12.703 6.30277 12.2555 5.93822C11.808 5.57366 11.5005 5.0655 11.385 4.49998C11.3713 4.42583 11.3745 4.34954 11.3944 4.2768C11.4143 4.20407 11.4504 4.13678 11.5 4.07998C11.5413 4.02418 11.5937 3.97758 11.654 3.94314C11.7142 3.90871 11.781 3.8872 11.85 3.87998C12.5351 3.80314 13.2136 3.67613 13.88 3.49998C13.9538 3.48125 14.0309 3.47963 14.1054 3.49522C14.18 3.51082 14.2499 3.54323 14.31 3.58998C14.3717 3.63861 14.421 3.70106 14.454 3.77229C14.487 3.84352 14.5028 3.92152 14.5 3.99998V5.99998C14.5018 6.1191 14.4609 6.23492 14.3848 6.32658C14.3087 6.41825 14.2024 6.47974 14.085 6.49998C14.0037 6.51002 13.9214 6.51002 13.84 6.49998ZM12.57 4.79998C12.781 5.13384 13.1152 5.371 13.5 5.45998V4.62998C13.18 4.69498 12.87 4.75498 12.57 4.79998Z" fill="#2B4775"/>
<path d="M2.00037 12.5C1.86776 12.5 1.74058 12.4473 1.64681 12.3536C1.55304 12.2598 1.50037 12.1326 1.50037 12V10C1.50037 9.86739 1.55304 9.74021 1.64681 9.64645C1.74058 9.55268 1.86776 9.5 2.00037 9.5C2.58392 9.50076 3.14882 9.70563 3.5972 10.0791C4.04557 10.4526 4.34916 10.9712 4.45537 11.545C4.46803 11.6127 4.46658 11.6823 4.45109 11.7494C4.43561 11.8165 4.40642 11.8797 4.36537 11.935C4.32418 11.9893 4.27234 12.0346 4.21301 12.0681C4.15368 12.1017 4.08813 12.1227 4.02037 12.13C3.38015 12.208 2.74554 12.3265 2.12037 12.485C2.08112 12.4948 2.04083 12.4999 2.00037 12.5ZM2.50037 10.585V11.37C2.77037 11.315 3.03037 11.265 3.28537 11.225C3.10582 10.9271 2.82832 10.7009 2.50037 10.585Z" fill="#2B4775"/>
<path d="M12.035 12.865C11.9194 12.8678 11.8064 12.8305 11.7152 12.7594C11.6241 12.6883 11.5604 12.5878 11.535 12.475C11.5073 12.3183 11.4956 12.1591 11.5 12C11.5 11.337 11.7634 10.7011 12.2322 10.2322C12.7011 9.76339 13.3369 9.5 14 9.5C14.1326 9.5 14.2598 9.55268 14.3535 9.64645C14.4473 9.74021 14.5 9.86739 14.5 10V12C14.5033 12.1142 14.4674 12.2261 14.3983 12.3171C14.3291 12.4081 14.2309 12.4726 14.12 12.5C13.4525 12.6705 12.7743 12.7958 12.09 12.875L12.035 12.865ZM13.5 10.585C13.2378 10.6746 13.0056 10.8352 12.8291 11.0487C12.6526 11.2623 12.5386 11.5206 12.5 11.795C12.815 11.745 13.145 11.685 13.5 11.605V10.585Z" fill="#2B4775"/>
<path d="M8.75 10H7C6.86739 10 6.74021 9.94732 6.64645 9.85355C6.55268 9.75979 6.5 9.63261 6.5 9.5C6.5 9.36739 6.55268 9.24021 6.64645 9.14645C6.74021 9.05268 6.86739 9 7 9H8.75C8.8163 9 8.87989 8.97366 8.92678 8.92678C8.97366 8.87989 9 8.8163 9 8.75C9 8.6837 8.97366 8.62011 8.92678 8.57322C8.87989 8.52634 8.8163 8.5 8.75 8.5H7.25C6.91848 8.5 6.60054 8.3683 6.36612 8.13388C6.1317 7.89946 6 7.58152 6 7.25C6 6.91848 6.1317 6.60054 6.36612 6.36612C6.60054 6.1317 6.91848 6 7.25 6H9C9.13261 6 9.25979 6.05268 9.35355 6.14645C9.44732 6.24021 9.5 6.36739 9.5 6.5C9.5 6.63261 9.44732 6.75979 9.35355 6.85355C9.25979 6.94732 9.13261 7 9 7H7.25C7.1837 7 7.12011 7.02634 7.07322 7.07322C7.02634 7.12011 7 7.1837 7 7.25C7 7.3163 7.02634 7.37989 7.07322 7.42678C7.12011 7.47366 7.1837 7.5 7.25 7.5H8.75C9.08152 7.5 9.39946 7.6317 9.63388 7.86612C9.8683 8.10054 10 8.41848 10 8.75C10 9.08152 9.8683 9.39946 9.63388 9.63388C9.39946 9.8683 9.08152 10 8.75 10Z" fill="#2B4775"/>
<path d="M8 7C7.86739 7 7.74021 6.94732 7.64645 6.85355C7.55268 6.75979 7.5 6.63261 7.5 6.5V6C7.5 5.86739 7.55268 5.74021 7.64645 5.64645C7.74021 5.55268 7.86739 5.5 8 5.5C8.13261 5.5 8.25979 5.55268 8.35355 5.64645C8.44732 5.74021 8.5 5.86739 8.5 6V6.5C8.5 6.63261 8.44732 6.75979 8.35355 6.85355C8.25979 6.94732 8.13261 7 8 7Z" fill="#2B4775"/>
<path d="M8 10.5C7.86739 10.5 7.74021 10.4473 7.64645 10.3536C7.55268 10.2598 7.5 10.1326 7.5 10V9.5C7.5 9.36739 7.55268 9.24021 7.64645 9.14645C7.74021 9.05268 7.86739 9 8 9C8.13261 9 8.25979 9.05268 8.35355 9.14645C8.44732 9.24021 8.5 9.36739 8.5 9.5V10C8.5 10.1326 8.44732 10.2598 8.35355 10.3536C8.25979 10.4473 8.13261 10.5 8 10.5Z" fill="#2B4775"/>
</svg>
