<svg width="38" height="38" viewBox="0 0 38 38" fill="none" xmlns="http://www.w3.org/2000/svg">
<path d="M35.349 1.56152H10.4341C8.97939 1.56152 7.80555 2.74427 7.80555 4.19065V6.53537H7.82039V27.753C7.82039 27.753 7.97239 28.918 7.39764 30.166C7.33767 30.3008 7.26405 30.438 7.18389 30.5745C7.17439 30.5894 7.16964 30.6048 7.15955 30.6196C7.15717 30.622 7.15539 30.622 7.15183 30.6238C6.79795 31.2021 6.24577 31.7573 5.3682 32.1011C5.99045 30.7075 5.99995 29.5776 5.99995 27.9383C5.99045 26.7288 5.99045 14.7404 5.99045 8.48287C5.19364 8.47396 4.2472 8.47396 3.18677 8.46565C0.591485 8.45199 0.106984 10.6204 0.0214844 11.625V30.4492C0.0214844 30.4492 0.0333594 31.4242 0.210891 32.1224C0.453141 32.9703 0.860453 33.7891 1.46905 34.6773C2.43211 36.0916 4.25967 36.385 4.71211 36.4372H35.7937C36.0698 36.423 36.4035 36.3755 36.6695 36.249C37.4497 35.7948 37.9775 34.9558 37.9775 33.9856V4.19065C37.9781 2.74427 36.8031 1.56152 35.349 1.56152ZM30.4702 27.8937C29.3753 27.8937 14.8528 27.8937 14.8528 27.8937C14.8528 27.8937 14.0221 27.7803 14.0465 27.0874C14.0601 26.6979 14.2745 26.2823 14.8528 26.2823H30.5052C30.5052 26.2823 31.6048 26.195 31.5918 27.088C31.5918 27.4158 31.5674 27.8937 30.4702 27.8937ZM30.4702 23.7963C29.3753 23.7963 14.8528 23.7963 14.8528 23.7963C14.8528 23.7963 14.0221 23.6805 14.0465 22.99C14.0601 22.6005 14.2745 22.1842 14.8528 22.1842H30.5052C30.5052 22.1842 31.6048 22.0964 31.5918 22.9906C31.5918 23.3171 31.5674 23.7963 30.4702 23.7963ZM30.4702 19.8662C29.3753 19.8662 14.8528 19.8662 14.8528 19.8662C14.8528 19.8662 14.0221 19.7511 14.0465 19.0593C14.0601 18.6698 14.2745 18.2542 14.8528 18.2542H30.5052C30.5052 18.2542 31.6048 18.1663 31.5918 19.0605C31.5918 19.3883 31.5674 19.8662 30.4702 19.8662ZM30.605 15.7842C29.5089 15.7842 14.9881 15.7842 14.9881 15.7842C14.9881 15.7842 14.1569 15.669 14.1818 14.9773C14.1937 14.5878 14.4086 14.1722 14.9881 14.1722H30.64C30.64 14.1722 31.7396 14.0843 31.7265 14.9785C31.7265 15.3056 31.701 15.7842 30.605 15.7842ZM30.605 11.72C29.5089 11.72 14.9881 11.72 14.9881 11.72C14.9881 11.72 14.1569 11.6042 14.1818 10.9131C14.1937 10.5236 14.4086 10.1086 14.9881 10.1086H30.64C30.64 10.1086 31.7396 10.0207 31.7265 10.9137C31.7265 11.242 31.701 11.72 30.605 11.72Z" fill="#2B4775"/>
</svg>
