<svg width="100" height="100" viewBox="0 0 100 100" fill="none" xmlns="http://www.w3.org/2000/svg">
<path d="M50.0003 58.3334C61.5062 58.3334 70.8336 47.1405 70.8336 33.3334C70.8336 19.5263 61.5062 8.33337 50.0003 8.33337C38.4944 8.33337 29.167 19.5263 29.167 33.3334C29.167 47.1405 38.4944 58.3334 50.0003 58.3334Z" fill="#9C9C9C"/>
<path d="M90.8336 79.5833C87.0836 72.0833 80.0002 65.8333 70.8336 62.0833C68.3336 61.25 65.4169 61.25 63.3336 62.5C59.1669 65 55.0002 66.25 50.0002 66.25C45.0002 66.25 40.8336 65 36.6669 62.5C34.5836 61.6667 31.6669 61.25 29.1669 62.5C20.0003 66.25 12.9169 72.5 9.16692 80C6.25025 85.4167 10.8336 91.6667 17.0836 91.6667H82.9169C89.1669 91.6667 93.7502 85.4167 90.8336 79.5833Z" fill="#9C9C9C"/>
</svg>
