<svg width="16" height="16" viewBox="0 0 16 16" fill="none" xmlns="http://www.w3.org/2000/svg">
<g clip-path="url(#clip0)">
<path d="M13.6684 2.32513C12.1643 0.826623 10.1643 0.000914276 8.03344 0C3.64248 0 0.0691257 3.55651 0.0673678 7.92796C0.0668562 9.32531 0.433578 10.6893 1.13062 11.8917L0.000488281 16L4.2234 14.8976C5.38689 15.5293 6.6969 15.8622 8.03002 15.8628H8.0334H8.03344C12.4237 15.8628 15.9976 12.3056 15.9995 7.93438C16.0002 5.81577 15.1723 3.82375 13.6684 2.32513ZM8.03344 14.5237H8.03086C6.84259 14.5231 5.67732 14.2055 4.66093 13.605L4.41905 13.4622L1.91309 14.1164L2.58215 11.6847L2.42455 11.4354C1.76172 10.3861 1.41181 9.17357 1.4123 7.92847C1.41376 4.29506 4.3838 1.33911 8.03595 1.33911C9.80452 1.33984 11.4668 2.02618 12.7169 3.2717C13.967 4.5172 14.6549 6.17293 14.6544 7.93382C14.6528 11.5673 11.6827 14.5237 8.03344 14.5237Z" fill="#E0E0E0"/>
<path d="M0.366211 15.5442L1.44472 11.6235C0.779347 10.4761 0.429443 9.17428 0.429863 7.84102C0.431608 3.66934 3.84177 0.275391 8.03179 0.275391C10.0654 0.276305 11.9741 1.06425 13.4091 2.49435C14.8445 3.92443 15.6345 5.82533 15.6337 7.84694C15.632 12.0187 12.2216 15.413 8.03209 15.413C8.03179 15.413 8.0323 15.413 8.03209 15.413H8.0287C6.75648 15.4126 5.50641 15.0946 4.39614 14.4922L0.366211 15.5442Z" fill="url(#paint0_linear)"/>
<path fill-rule="evenodd" clip-rule="evenodd" d="M6.06491 4.56218C5.91753 4.23596 5.76237 4.22942 5.62216 4.22372C5.50747 4.21882 5.37618 4.21912 5.2451 4.21912C5.11392 4.21912 4.90074 4.2682 4.72046 4.46422C4.54008 4.66024 4.03174 5.13411 4.03174 6.09787C4.03174 7.06174 4.73686 7.99306 4.83515 8.12387C4.93354 8.25448 6.1963 10.2955 8.19617 11.0807C9.85822 11.7332 10.1964 11.6034 10.5572 11.5708C10.918 11.5381 11.7213 11.097 11.8853 10.6395C12.0492 10.1822 12.0492 9.79017 12 9.70822C11.9508 9.62659 11.8197 9.57761 11.6229 9.47966C11.4261 9.3817 10.4588 8.90772 10.2784 8.84242C10.0981 8.77711 9.96687 8.74446 9.83569 8.94059C9.7045 9.1365 9.32764 9.57761 9.21285 9.70822C9.09807 9.83913 8.98328 9.85546 8.7865 9.7575C8.58972 9.65924 7.95603 9.45261 7.20428 8.78526C6.61938 8.26609 6.22448 7.62487 6.10969 7.42876C5.99491 7.23284 6.09739 7.12672 6.19609 7.02906C6.28443 6.9413 6.39287 6.80039 6.49126 6.686C6.58944 6.57161 6.62224 6.48998 6.68783 6.35937C6.75342 6.22855 6.72063 6.11417 6.67143 6.01622C6.62224 5.91826 6.23986 4.94952 6.06491 4.56218Z" fill="white"/>
<path d="M13.6033 2.29991C12.1165 0.818605 10.1394 0.00239218 8.03304 0.00146484C3.69247 0.00146484 0.160135 3.51714 0.158391 7.83841C0.157879 9.21974 0.52039 10.5681 1.20943 11.7566L0.0922852 15.8178L4.26672 14.728C5.41687 15.3525 6.71184 15.6816 8.02966 15.6821H8.033H8.03304C12.3729 15.6821 15.9057 12.1658 15.9076 7.84473C15.9083 5.75048 15.0899 3.78133 13.6033 2.29991ZM8.03304 14.3584H8.03048C6.85584 14.3578 5.70395 14.0439 4.69923 13.4503L4.46012 13.3092L1.98292 13.9558L2.64429 11.5521L2.48851 11.3056C1.83329 10.2684 1.48739 9.06973 1.4879 7.83893C1.48933 4.24724 4.42527 1.32523 8.03551 1.32523C9.78379 1.32595 11.4269 2.00441 12.6627 3.23562C13.8985 4.46684 14.5785 6.10355 14.578 7.84425C14.5764 11.436 11.6404 14.3584 8.03304 14.3584Z" fill="white"/>
</g>
<defs>
<linearGradient id="paint0_linear" x1="7.99996" y1="15.5442" x2="7.99996" y2="0.275416" gradientUnits="userSpaceOnUse">
<stop stop-color="#20B038"/>
<stop offset="1" stop-color="#60D66A"/>
</linearGradient>
<clipPath id="clip0">
<rect width="16" height="16" fill="white"/>
</clipPath>
</defs>
</svg>
