<svg width="21" height="21" viewBox="0 0 21 21" fill="none" xmlns="http://www.w3.org/2000/svg">
<path d="M12.5834 20.9167C11.4328 20.9167 10.5 19.9839 10.5 18.8333C10.5 17.6827 11.4328 16.75 12.5834 16.75C13.7339 16.75 14.6667 17.6827 14.6667 18.8333C14.6667 19.9839 13.7339 20.9167 12.5834 20.9167Z" fill="#E4F0FF"/>
<path d="M6.33335 20.9167C5.18276 20.9167 4.25002 19.9839 4.25002 18.8333C4.25002 17.6827 5.18276 16.75 6.33335 16.75C7.48395 16.75 8.41669 17.6827 8.41669 18.8333C8.41669 19.9839 7.48395 20.9167 6.33335 20.9167Z" fill="#E4F0FF"/>
<path d="M0.500021 6.125C0.916687 5.60416 1.54169 5.29166 2.16669 5.29166H14.0417L14.6667 1.74999C14.875 0.812495 15.7084 0.0833282 16.75 0.0833282H18.8334C19.9792 0.0833282 20.9167 1.02083 20.9167 2.16666C20.9167 3.3125 19.9792 4.25 18.8334 4.25H18.5209L16.75 13C16.5417 14.0417 15.7084 14.6667 14.6667 14.6667H4.25002C3.31252 14.6667 2.58335 14.0417 2.27085 13.2083L0.187521 8C-0.0208111 7.375 0.0833549 6.75 0.500021 6.125Z" fill="#E4F0FF"/>
</svg>
